<svg width="288" height="50" viewBox="0 0 288 50" fill="none" xmlns="http://www.w3.org/2000/svg">
<path d="M35.5745 21.6604C36.6696 21.6634 37.7544 21.4492 38.7661 21.0301C39.7778 20.611 40.6963 19.9953 41.4685 19.2188L49.4896 11.2031C50.124 10.5688 50.1824 9.53648 49.5782 8.87085C49.4265 8.70362 49.2424 8.56895 49.0371 8.47501C48.8318 8.38107 48.6096 8.32981 48.3839 8.32436C48.1581 8.3189 47.9337 8.35936 47.7241 8.44328C47.5145 8.52719 47.3241 8.65281 47.1645 8.81252L40.0153 15.9563C39.7752 16.196 39.4498 16.3307 39.1105 16.3307C38.7713 16.3307 38.4459 16.196 38.2058 15.9563C37.7068 15.4584 37.7339 14.6167 38.2319 14.1188L45.3499 7.00106C45.5094 6.8415 45.6349 6.65121 45.7187 6.44172C45.8026 6.23222 45.843 6.00789 45.8375 5.78232C45.832 5.55674 45.7808 5.33463 45.687 5.12943C45.5931 4.92423 45.4586 4.74023 45.2915 4.58856C44.9899 4.31498 44.5966 4.16445 44.1894 4.16669C43.7279 4.16701 43.2853 4.3506 42.9591 4.67711L35.8474 11.7875C35.6073 12.0273 35.2819 12.1619 34.9427 12.1619C34.6034 12.1619 34.278 12.0273 34.0379 11.7875C33.54 11.2896 33.566 10.4479 34.064 9.95002L41.182 2.8344C41.3415 2.67484 41.467 2.48455 41.5508 2.27505C41.6347 2.06556 41.6751 1.84123 41.6696 1.61565C41.6642 1.39008 41.613 1.16796 41.5191 0.962765C41.4253 0.757566 41.2907 0.57356 41.1236 0.421899C40.822 0.148318 40.4287 -0.00221621 40.0215 2.46632e-05C39.56 0.000570948 39.1176 0.184131 38.7913 0.510441L30.7753 8.52606C29.9987 9.29832 29.3829 10.217 28.9638 11.2288C28.5447 12.2407 28.3304 13.3256 28.3335 14.4209V15.2781C28.3337 15.4973 28.2906 15.7144 28.2068 15.9169C28.123 16.1194 28 16.3034 27.845 16.4584L24.1354 20.1688C24.0967 20.2075 24.0508 20.2382 24.0002 20.2592C23.9496 20.2802 23.8954 20.291 23.8406 20.291C23.7859 20.291 23.7317 20.2802 23.6811 20.2592C23.6305 20.2382 23.5845 20.2075 23.5458 20.1688L5.49508 2.11773C5.18353 1.80585 4.76111 1.63009 4.32028 1.62891C3.87944 1.62774 3.45609 1.80126 3.14289 2.11148C1.5647 3.67502 0.72196 5.88231 0.72196 8.49377C0.711542 12.8063 2.9783 17.7646 6.63783 21.4188L15.5392 30.3198C16.8044 31.5823 18.5187 32.2915 20.3061 32.2917C20.8759 32.2919 21.4434 32.2191 21.9947 32.075C22.1331 32.0388 22.2756 32.0202 22.4187 32.0198C22.8371 32.0199 23.2401 32.178 23.5469 32.4625L24.7334 33.5583C25.0394 33.871 25.2113 34.2907 25.2126 34.7281V35.3052C25.2095 36.6171 25.7251 37.877 26.647 38.8104L36.0276 48.349L36.037 48.3594C37.0781 49.4004 38.4902 49.9851 39.9625 49.985C41.4348 49.9849 42.8468 49.4 43.8878 48.3589C44.9288 47.3177 45.5136 45.9058 45.5135 44.4335C45.5134 42.9612 44.9285 41.5493 43.8873 40.5083L29.8263 26.4479C29.7876 26.4092 29.7568 26.3633 29.7359 26.3127C29.7149 26.2621 29.7041 26.2079 29.7041 26.1531C29.7041 26.0984 29.7149 26.0442 29.7359 25.9936C29.7568 25.943 29.7876 25.897 29.8263 25.8583L33.5358 22.149C33.6906 21.9941 33.8745 21.8712 34.0768 21.7874C34.2792 21.7035 34.496 21.6604 34.715 21.6604H35.5745Z" fill="#5D0E41"/>
<path d="M20.3061 35.625C17.6375 35.6195 15.0788 34.5621 13.1849 32.6823L11.7411 31.2385C11.5849 31.0827 11.3732 30.9952 11.1525 30.9952C10.9319 30.9952 10.7202 31.0827 10.564 31.2385L1.70944 40.0469C0.131254 41.625 -0.432311 43.9479 0.348972 46.2229C0.392699 46.3511 0.444542 46.4763 0.504186 46.5979C1.55527 48.75 3.59494 50 5.82628 50C6.59364 50.0019 7.35375 49.8515 8.06257 49.5575C8.77139 49.2636 9.41483 48.8319 9.95562 48.2875L21.7645 36.4229C21.8142 36.3722 21.8522 36.3113 21.876 36.2443C21.8997 36.1774 21.9086 36.1061 21.902 36.0354V36.0083C21.8973 35.9434 21.8796 35.88 21.8498 35.8221C21.82 35.7642 21.7788 35.7129 21.7287 35.6714C21.6786 35.6298 21.6206 35.5988 21.5581 35.5803C21.4957 35.5618 21.4302 35.5561 21.3655 35.5635C21.0137 35.6026 20.66 35.6231 20.3061 35.625Z" fill="#5D0E41"/>
<path d="M75.7443 7.36364V19H73.6193L68.5568 11.6761H68.4716V19H66.0114V7.36364H68.1705L73.1932 14.6818H73.2955V7.36364H75.7443ZM77.777 19V7.36364H80.2372V12.1648H85.2315V7.36364H87.6861V19H85.2315V14.1932H80.2372V19H77.777ZM91.7202 19H89.0838L93.1009 7.36364H96.2713L100.283 19H97.6463L94.7315 10.0227H94.6406L91.7202 19ZM91.5554 14.4261H97.7827V16.3466H91.5554V14.4261ZM93.8452 6.23864L92.1122 3.65341H94.3452L95.5554 6.23864H93.8452ZM107.392 19H104.756L108.773 7.36364H111.943L115.955 19H113.318L110.403 10.0227H110.312L107.392 19ZM107.227 14.4261H113.455V16.3466H107.227V14.4261ZM111.483 4.31818H113.17C113.167 5.00758 112.911 5.5625 112.403 5.98295C111.9 6.40341 111.218 6.61364 110.358 6.61364C109.494 6.61364 108.811 6.40341 108.307 5.98295C107.803 5.5625 107.551 5.00758 107.551 4.31818H109.227C109.223 4.57955 109.307 4.81439 109.477 5.02273C109.652 5.23106 109.945 5.33523 110.358 5.33523C110.759 5.33523 111.047 5.23295 111.222 5.02841C111.396 4.82386 111.483 4.58712 111.483 4.31818ZM127.088 7.36364V19H124.963L119.901 11.6761H119.815V19H117.355V7.36364H119.514L124.537 14.6818H124.639V7.36364H127.088ZM132.824 19V7.36364H135.284V12.4943H135.438L139.625 7.36364H142.574L138.256 12.5739L142.625 19H139.682L136.494 14.2159L135.284 15.6932V19H132.824ZM148.849 7.36364V19H146.389V9.69886H146.321L143.656 11.3693V9.1875L146.537 7.36364H148.849Z" fill="#5D0E41"/>
<path d="M66.5455 33.1307L66.8409 31.3636H76.125L75.8295 33.1307H72.233L70.5966 43H68.5057L70.142 33.1307H66.5455ZM75.983 43L77.9148 31.3636H82.2784C83.1723 31.3636 83.8977 31.5189 84.4545 31.8295C85.0114 32.1402 85.3996 32.5758 85.6193 33.1364C85.839 33.6932 85.8864 34.3428 85.7614 35.0852C85.6402 35.8277 85.375 36.4735 84.9659 37.0227C84.5606 37.5682 84.0246 37.9905 83.358 38.2898C82.6951 38.589 81.9167 38.7386 81.0227 38.7386H77.9148L78.2102 36.9886H81.0398C81.5625 36.9886 82.0019 36.9167 82.358 36.7727C82.714 36.625 82.9943 36.411 83.1989 36.1307C83.4072 35.8466 83.5455 35.4981 83.6136 35.0852C83.678 34.6723 83.6534 34.3201 83.5398 34.0284C83.4299 33.733 83.2197 33.5095 82.9091 33.358C82.6023 33.2027 82.1875 33.125 81.6648 33.125H79.733L78.0909 43H75.983ZM82.8693 37.7273L84.875 43H82.5227L80.5682 37.7273H82.8693ZM99.0994 30.8523H100.582C100.454 31.6136 100.238 32.2614 99.9347 32.7955C99.6354 33.3295 99.2112 33.7386 98.6619 34.0227C98.1165 34.303 97.4138 34.4432 96.554 34.4432L96.7642 33.2159C97.3286 33.2159 97.7642 33.1231 98.071 32.9375C98.3778 32.7519 98.6051 32.483 98.7528 32.1307C98.9006 31.7784 99.0161 31.3523 99.0994 30.8523ZM95.7188 31.3636H97.8267L96.5653 38.9659C96.429 39.7992 96.1108 40.5322 95.6108 41.1648C95.1146 41.7973 94.482 42.2917 93.7131 42.6477C92.9441 43 92.0881 43.1761 91.1449 43.1761C90.1941 43.1761 89.3949 43 88.7472 42.6477C88.0994 42.2917 87.6316 41.7973 87.3438 41.1648C87.0597 40.5322 86.9858 39.7992 87.1222 38.9659L88.3835 31.3636H90.4915L89.2585 38.7898C89.179 39.2746 89.215 39.7064 89.3665 40.0852C89.5218 40.4602 89.7756 40.7557 90.1278 40.9716C90.4839 41.1875 90.929 41.2955 91.4631 41.2955C91.9972 41.2955 92.4782 41.1875 92.9062 40.9716C93.3343 40.7557 93.6847 40.4602 93.9574 40.0852C94.2301 39.7064 94.4063 39.2746 94.4858 38.7898L95.7188 31.3636ZM111.844 30.7045H113.327C113.149 31.7803 112.764 32.6155 112.173 33.2102C111.586 33.8049 110.779 34.1023 109.753 34.1023L109.952 32.8977C110.516 32.8977 110.944 32.7045 111.236 32.3182C111.527 31.9318 111.73 31.3939 111.844 30.7045ZM111.168 37.3182C110.963 38.553 110.56 39.6061 109.957 40.4773C109.359 41.3447 108.628 42.0095 107.764 42.4716C106.904 42.9299 105.978 43.1591 104.986 43.1591C103.944 43.1591 103.05 42.9167 102.304 42.4318C101.558 41.9432 101.02 41.2443 100.69 40.3352C100.365 39.4261 100.308 38.3352 100.52 37.0625C100.724 35.8314 101.126 34.7784 101.724 33.9034C102.323 33.0284 103.056 32.3598 103.923 31.8977C104.791 31.4356 105.726 31.2045 106.73 31.2045C107.764 31.2045 108.651 31.4489 109.389 31.9375C110.132 32.4223 110.666 33.1212 110.991 34.0341C111.321 34.947 111.38 36.0417 111.168 37.3182ZM109.094 37.0625C109.234 36.2027 109.221 35.4773 109.054 34.8864C108.891 34.2955 108.601 33.8504 108.185 33.5511C107.768 33.2481 107.255 33.0966 106.645 33.0966C105.986 33.0966 105.376 33.2614 104.815 33.5909C104.259 33.9167 103.785 34.3939 103.395 35.0227C103.009 35.6515 102.743 36.4167 102.599 37.3182C102.448 38.1818 102.457 38.9072 102.628 39.4943C102.798 40.0814 103.094 40.5246 103.514 40.8239C103.935 41.1193 104.448 41.267 105.054 41.267C105.709 41.267 106.315 41.1042 106.872 40.7784C107.429 40.4527 107.901 39.9773 108.287 39.3523C108.677 38.7273 108.946 37.964 109.094 37.0625ZM106.247 30.2159L104.94 27.6193H106.952L107.787 30.2159H106.247ZM124.134 31.3636L122.202 43H120.327L116.162 35.0739H116.071L114.747 43H112.639L114.571 31.3636H116.457L120.616 39.2955H120.724L122.037 31.3636H124.134ZM133.601 35.0795C133.559 34.7727 133.483 34.4981 133.374 34.2557C133.264 34.0095 133.116 33.8011 132.93 33.6307C132.745 33.4564 132.519 33.3239 132.254 33.233C131.989 33.142 131.68 33.0966 131.328 33.0966C130.703 33.0966 130.11 33.2538 129.55 33.5682C128.989 33.8826 128.51 34.3447 128.112 34.9545C127.714 35.5606 127.444 36.2992 127.3 37.1705C127.156 38.0492 127.163 38.7936 127.322 39.4034C127.482 40.0133 127.773 40.4773 128.197 40.7955C128.625 41.1098 129.163 41.267 129.811 41.267C130.406 41.267 130.946 41.1534 131.43 40.9261C131.915 40.6989 132.317 40.3769 132.635 39.9602C132.957 39.5398 133.161 39.0473 133.249 38.483L133.714 38.5568H130.55L130.834 36.9091H135.555L135.317 38.3068C135.154 39.3068 134.8 40.1705 134.254 40.8977C133.713 41.6212 133.036 42.1799 132.226 42.5739C131.419 42.964 130.535 43.1591 129.572 43.1591C128.504 43.1591 127.605 42.9186 126.874 42.4375C126.146 41.9527 125.631 41.2652 125.328 40.375C125.025 39.4811 124.976 38.4205 125.18 37.1932C125.332 36.2538 125.601 35.4148 125.987 34.6761C126.377 33.9375 126.855 33.3106 127.419 32.7955C127.987 32.2765 128.618 31.8826 129.311 31.6136C130.004 31.3409 130.732 31.2045 131.493 31.2045C132.133 31.2045 132.716 31.2992 133.243 31.4886C133.769 31.6742 134.22 31.9394 134.595 32.2841C134.974 32.6288 135.264 33.0379 135.464 33.5114C135.665 33.9848 135.76 34.5076 135.749 35.0795H133.601ZM144.545 43H141.54L141.841 41.1761H144.653C145.46 41.1761 146.163 41.0227 146.761 40.7159C147.364 40.4053 147.854 39.9451 148.233 39.3352C148.616 38.7216 148.881 37.9602 149.028 37.0511C149.176 36.1799 149.167 35.4602 149 34.892C148.833 34.3201 148.509 33.8939 148.028 33.6136C147.551 33.3295 146.919 33.1875 146.131 33.1875H143.108L143.409 31.3636H146.443C147.598 31.3636 148.557 31.6023 149.318 32.0795C150.08 32.5568 150.614 33.2386 150.92 34.125C151.231 35.0076 151.284 36.0606 151.08 37.2841C150.883 38.4811 150.494 39.5057 149.915 40.358C149.335 41.2102 148.591 41.8636 147.682 42.3182C146.773 42.7727 145.727 43 144.545 43ZM144.585 31.3636L142.653 43H140.545L142.477 31.3636H144.585ZM139.932 37.5568L140.159 36.2614H145.602L145.375 37.5568H139.932ZM153.634 43H151.384L157.412 31.3636H160.014L162.185 43H159.935L158.372 33.75H158.281L153.634 43ZM154.463 38.4375H160.599L160.315 40.1307H154.179L154.463 38.4375ZM156.366 46.125C156.041 46.125 155.768 46.0152 155.548 45.7955C155.332 45.5758 155.24 45.3144 155.27 45.0114C155.296 44.7008 155.435 44.4356 155.685 44.2159C155.938 44 156.228 43.892 156.554 43.892C156.884 43.892 157.154 44 157.366 44.2159C157.582 44.4356 157.677 44.7008 157.651 45.0114C157.624 45.3144 157.486 45.5758 157.236 45.7955C156.986 46.0152 156.696 46.125 156.366 46.125ZM167.757 31.3636L165.825 43H163.717L165.649 31.3636H167.757ZM172.077 43L174.009 31.3636H176.116L175.298 36.2898H180.69L181.509 31.3636H183.622L181.69 43H179.577L180.395 38.0568H175.003L174.185 43H172.077ZM195.324 37.3182C195.119 38.553 194.716 39.6061 194.114 40.4773C193.515 41.3447 192.784 42.0095 191.92 42.4716C191.061 42.9299 190.134 43.1591 189.142 43.1591C188.1 43.1591 187.206 42.9167 186.46 42.4318C185.714 41.9432 185.176 41.2443 184.847 40.3352C184.521 39.4261 184.464 38.3352 184.676 37.0625C184.881 35.8314 185.282 34.7784 185.881 33.9034C186.479 33.0284 187.212 32.3598 188.08 31.8977C188.947 31.4356 189.883 31.2045 190.886 31.2045C191.92 31.2045 192.807 31.4489 193.545 31.9375C194.288 32.4223 194.822 33.1212 195.148 34.0341C195.477 34.947 195.536 36.0417 195.324 37.3182ZM193.25 37.0625C193.39 36.2027 193.377 35.4773 193.21 34.8864C193.047 34.2955 192.758 33.8504 192.341 33.5511C191.924 33.2481 191.411 33.0966 190.801 33.0966C190.142 33.0966 189.532 33.2614 188.972 33.5909C188.415 33.9167 187.941 34.3939 187.551 35.0227C187.165 35.6515 186.9 36.4167 186.756 37.3182C186.604 38.1818 186.614 38.9072 186.784 39.4943C186.955 40.0814 187.25 40.5246 187.67 40.8239C188.091 41.1193 188.604 41.267 189.21 41.267C189.866 41.267 190.472 41.1042 191.028 40.7784C191.585 40.4527 192.057 39.9773 192.443 39.3523C192.833 38.7273 193.102 37.964 193.25 37.0625ZM188.676 46.0966C188.35 46.0966 188.078 45.9867 187.858 45.767C187.642 45.5473 187.549 45.286 187.58 44.983C187.606 44.6723 187.744 44.4072 187.994 44.1875C188.248 43.9716 188.538 43.8636 188.864 43.8636C189.193 43.8636 189.464 43.9716 189.676 44.1875C189.892 44.4072 189.987 44.6723 189.96 44.983C189.934 45.286 189.795 45.5473 189.545 45.767C189.295 45.9867 189.006 46.0966 188.676 46.0966ZM207.601 35.2898H205.51C205.51 34.9413 205.453 34.6326 205.339 34.3636C205.226 34.0909 205.067 33.8598 204.862 33.6705C204.658 33.4811 204.415 33.339 204.135 33.2443C203.855 33.1458 203.544 33.0966 203.203 33.0966C202.552 33.0966 201.946 33.2614 201.385 33.5909C200.824 33.9205 200.349 34.3996 199.959 35.0284C199.569 35.6534 199.298 36.4129 199.146 37.3068C199.006 38.178 199.019 38.9072 199.186 39.4943C199.357 40.0814 199.652 40.5246 200.072 40.8239C200.493 41.1193 201.004 41.267 201.607 41.267C201.974 41.267 202.326 41.2216 202.663 41.1307C203 41.036 203.311 40.8977 203.595 40.7159C203.883 40.5303 204.135 40.3049 204.351 40.0398C204.571 39.7746 204.741 39.4735 204.862 39.1364H206.982C206.807 39.6894 206.552 40.2102 206.214 40.6989C205.877 41.1837 205.472 41.6117 204.999 41.983C204.525 42.3504 203.995 42.6383 203.408 42.8466C202.821 43.0549 202.188 43.1591 201.51 43.1591C200.468 43.1591 199.576 42.9167 198.834 42.4318C198.095 41.9432 197.565 41.2443 197.243 40.3352C196.921 39.4223 196.864 38.3295 197.072 37.0568C197.281 35.8182 197.682 34.7633 198.277 33.892C198.875 33.0208 199.605 32.3561 200.464 31.8977C201.328 31.4356 202.258 31.2045 203.254 31.2045C203.913 31.2045 204.512 31.2955 205.05 31.4773C205.591 31.6591 206.055 31.9261 206.442 32.2784C206.828 32.6269 207.122 33.0549 207.322 33.5625C207.527 34.0663 207.62 34.642 207.601 35.2898ZM213.358 33.1307L213.653 31.3636H222.938L222.642 33.1307H219.045L217.409 43H215.318L216.955 33.1307H213.358ZM222.795 43L224.727 31.3636H226.835L226.017 36.2898H231.409L232.227 31.3636H234.341L232.409 43H230.295L231.114 38.0568H225.722L224.903 43H222.795ZM243.969 31.3636H246.077L244.815 38.9659C244.679 39.7992 244.361 40.5322 243.861 41.1648C243.365 41.7973 242.732 42.2917 241.963 42.6477C241.194 43 240.338 43.1761 239.395 43.1761C238.444 43.1761 237.645 43 236.997 42.6477C236.349 42.2917 235.882 41.7973 235.594 41.1648C235.31 40.5322 235.236 39.7992 235.372 38.9659L236.634 31.3636H238.741L237.509 38.7898C237.429 39.2746 237.465 39.7064 237.616 40.0852C237.772 40.4602 238.026 40.7557 238.378 40.9716C238.734 41.1875 239.179 41.2955 239.713 41.2955C240.247 41.2955 240.728 41.1875 241.156 40.9716C241.584 40.7557 241.935 40.4602 242.207 40.0852C242.48 39.7064 242.656 39.2746 242.736 38.7898L243.969 31.3636ZM242.349 30.1364H240.781L240.878 29.0455C241.279 29.0303 241.571 28.9792 241.753 28.892C241.935 28.8011 242.037 28.6761 242.06 28.517C242.098 28.3125 242.01 28.1705 241.798 28.0909C241.586 28.0114 241.315 27.9716 240.986 27.9716L241.219 26.9545C242.154 26.9545 242.842 27.0909 243.281 27.3636C243.721 27.6364 243.902 28.0076 243.827 28.4773C243.766 28.8371 243.596 29.1061 243.315 29.2841C243.039 29.4583 242.743 29.5682 242.429 29.6136L242.349 30.1364ZM247.572 31.3636H249.953L251.947 36.5114H252.072L255.76 31.3636H258.141L252.697 38.6591L251.976 43H249.874L250.595 38.6591L247.572 31.3636ZM261.67 43L263.602 31.3636H265.71L264.074 41.233H269.199L268.903 43H261.67ZM282.297 30.7045H283.78C283.602 31.7803 283.217 32.6155 282.626 33.2102C282.039 33.8049 281.232 34.1023 280.206 34.1023L280.405 32.8977C280.969 32.8977 281.397 32.7045 281.689 32.3182C281.981 31.9318 282.183 31.3939 282.297 30.7045ZM281.621 37.3182C281.416 38.553 281.013 39.6061 280.411 40.4773C279.812 41.3447 279.081 42.0095 278.217 42.4716C277.357 42.9299 276.431 43.1591 275.439 43.1591C274.397 43.1591 273.503 42.9167 272.757 42.4318C272.011 41.9432 271.473 41.2443 271.143 40.3352C270.818 39.4261 270.761 38.3352 270.973 37.0625C271.178 35.8314 271.579 34.7784 272.178 33.9034C272.776 33.0284 273.509 32.3598 274.376 31.8977C275.244 31.4356 276.179 31.2045 277.183 31.2045C278.217 31.2045 279.104 31.4489 279.842 31.9375C280.585 32.4223 281.119 33.1212 281.445 34.0341C281.774 34.947 281.833 36.0417 281.621 37.3182ZM279.547 37.0625C279.687 36.2027 279.674 35.4773 279.507 34.8864C279.344 34.2955 279.054 33.8504 278.638 33.5511C278.221 33.2481 277.708 33.0966 277.098 33.0966C276.439 33.0966 275.829 33.2614 275.268 33.5909C274.712 33.9167 274.238 34.3939 273.848 35.0227C273.462 35.6515 273.196 36.4167 273.053 37.3182C272.901 38.1818 272.911 38.9072 273.081 39.4943C273.251 40.0814 273.547 40.5246 273.967 40.8239C274.388 41.1193 274.901 41.267 275.507 41.267C276.162 41.267 276.768 41.1042 277.325 40.7784C277.882 40.4527 278.354 39.9773 278.74 39.3523C279.13 38.7273 279.399 37.964 279.547 37.0625ZM274.973 46.0966C274.647 46.0966 274.375 45.9867 274.155 45.767C273.939 45.5473 273.846 45.286 273.876 44.983C273.903 44.6723 274.041 44.4072 274.291 44.1875C274.545 43.9716 274.835 43.8636 275.161 43.8636C275.49 43.8636 275.761 43.9716 275.973 44.1875C276.189 44.4072 276.284 44.6723 276.257 44.983C276.231 45.286 276.092 45.5473 275.842 45.767C275.592 45.9867 275.303 46.0966 274.973 46.0966ZM287.132 31.3636L285.2 43H283.092L285.024 31.3636H287.132Z" fill="#5D0E41"/>
</svg>
